<mxfile host="app.diagrams.net" modified="2023-10-27T20:36:06.779Z" agent="Mozilla/5.0 (Macintosh; Intel Mac OS X 10_15_7) AppleWebKit/605.1.15 (KHTML, like Gecko) Version/17.0 Safari/605.1.15" etag="6qriYIzjwigUpaW3iXrm" version="22.0.8" type="device">
  <diagram name="Page-1" id="u76wDM2hZAYBNvkX0Yjf">
    <mxGraphModel dx="954" dy="647" grid="1" gridSize="10" guides="1" tooltips="1" connect="1" arrows="1" fold="1" page="1" pageScale="1" pageWidth="850" pageHeight="1100" math="0" shadow="0">
      <root>
        <mxCell id="0" />
        <mxCell id="1" parent="0" />
        <mxCell id="8BunqAhMfIGNklcZEyUK-46" value="" style="rounded=1;whiteSpace=wrap;html=1;" vertex="1" parent="1">
          <mxGeometry x="645" y="1330" width="190" height="440" as="geometry" />
        </mxCell>
        <mxCell id="8BunqAhMfIGNklcZEyUK-44" value="" style="rounded=1;whiteSpace=wrap;html=1;" vertex="1" parent="1">
          <mxGeometry x="360" y="1330" width="190" height="440" as="geometry" />
        </mxCell>
        <mxCell id="8BunqAhMfIGNklcZEyUK-1" value="System Design: Ticket Master" style="text;html=1;strokeColor=none;fillColor=none;align=center;verticalAlign=middle;whiteSpace=wrap;rounded=0;fontSize=24;" vertex="1" parent="1">
          <mxGeometry x="150" y="40" width="440" height="30" as="geometry" />
        </mxCell>
        <mxCell id="8BunqAhMfIGNklcZEyUK-2" value="&lt;h1&gt;&lt;font style=&quot;font-size: 18px;&quot;&gt;Requirements Functional&lt;/font&gt;&lt;/h1&gt;&lt;p style=&quot;font-size: 16px;&quot;&gt;&lt;font style=&quot;font-size: 16px;&quot;&gt;- Search for events&lt;/font&gt;&lt;/p&gt;&lt;p style=&quot;font-size: 16px;&quot;&gt;&lt;font style=&quot;font-size: 16px;&quot;&gt;- Select seats&lt;/font&gt;&lt;/p&gt;&lt;p style=&quot;font-size: 16px;&quot;&gt;&lt;font style=&quot;font-size: 16px;&quot;&gt;- Buy seats&lt;/font&gt;&lt;/p&gt;&lt;p style=&quot;font-size: 16px;&quot;&gt;&lt;font style=&quot;font-size: 16px;&quot;&gt;- Guest Checkout&lt;/font&gt;&lt;/p&gt;" style="text;html=1;strokeColor=none;fillColor=none;spacing=5;spacingTop=-20;whiteSpace=wrap;overflow=hidden;rounded=0;" vertex="1" parent="1">
          <mxGeometry x="600" y="105" width="280" height="180" as="geometry" />
        </mxCell>
        <mxCell id="8BunqAhMfIGNklcZEyUK-3" value="&lt;h1&gt;&lt;font style=&quot;font-size: 18px;&quot;&gt;Non-functional&lt;/font&gt;&lt;/h1&gt;&lt;div style=&quot;font-size: 16px;&quot;&gt;&lt;font style=&quot;font-size: 16px;&quot;&gt;&lt;font style=&quot;font-size: 16px;&quot;&gt;- &lt;/font&gt;Availability&lt;/font&gt;&lt;/div&gt;&lt;div style=&quot;font-size: 16px;&quot;&gt;&lt;font style=&quot;font-size: 16px;&quot;&gt;&lt;br&gt;&lt;/font&gt;&lt;/div&gt;&lt;div style=&quot;font-size: 16px;&quot;&gt;&lt;font style=&quot;font-size: 16px;&quot;&gt;- Scalability&amp;nbsp;&lt;/font&gt;&lt;/div&gt;&lt;div style=&quot;font-size: 16px;&quot;&gt;&lt;font style=&quot;font-size: 16px;&quot;&gt;&lt;br&gt;&lt;/font&gt;&lt;/div&gt;&lt;div style=&quot;font-size: 16px;&quot;&gt;&lt;font style=&quot;font-size: 16px;&quot;&gt;- Consistency&lt;/font&gt;&lt;/div&gt;" style="text;html=1;strokeColor=none;fillColor=none;spacing=5;spacingTop=-20;whiteSpace=wrap;overflow=hidden;rounded=0;" vertex="1" parent="1">
          <mxGeometry x="340" y="110" width="190" height="170" as="geometry" />
        </mxCell>
        <mxCell id="8BunqAhMfIGNklcZEyUK-4" value="&lt;h1&gt;&lt;font style=&quot;font-size: 18px;&quot;&gt;Assumptions&lt;/font&gt;&lt;/h1&gt;&lt;h1 style=&quot;font-size: 18px;&quot;&gt;&lt;span style=&quot;font-weight: 400;&quot;&gt;&lt;font style=&quot;font-size: 18px;&quot;&gt;- &amp;nbsp;events: 50,000 seats/10 min&lt;/font&gt;&lt;/span&gt;&lt;/h1&gt;&lt;div style=&quot;font-size: 18px;&quot;&gt;&lt;span style=&quot;font-weight: 400;&quot;&gt;&lt;font style=&quot;font-size: 18px;&quot;&gt;= 5000/min = 5000/60 = 100 bookings/sec&lt;/font&gt;&lt;/span&gt;&lt;/div&gt;&lt;div style=&quot;font-size: 18px;&quot;&gt;&lt;span style=&quot;font-weight: 400;&quot;&gt;&lt;font style=&quot;font-size: 18px;&quot;&gt;&lt;br&gt;&lt;/font&gt;&lt;/span&gt;&lt;/div&gt;&lt;div style=&quot;font-size: 18px;&quot;&gt;&lt;span style=&quot;font-weight: 400;&quot;&gt;&lt;font style=&quot;font-size: 18px;&quot;&gt;&lt;br&gt;&lt;/font&gt;&lt;/span&gt;&lt;/div&gt;" style="text;html=1;strokeColor=none;fillColor=none;spacing=5;spacingTop=-20;whiteSpace=wrap;overflow=hidden;rounded=0;" vertex="1" parent="1">
          <mxGeometry x="10" y="110" width="330" height="170" as="geometry" />
        </mxCell>
        <mxCell id="8BunqAhMfIGNklcZEyUK-5" value="APIs Seats (RESTful)" style="swimlane;childLayout=stackLayout;horizontal=1;startSize=50;horizontalStack=0;rounded=1;fontSize=14;fontStyle=0;strokeWidth=2;resizeParent=0;resizeLast=1;shadow=0;dashed=0;align=center;arcSize=4;whiteSpace=wrap;html=1;" vertex="1" parent="1">
          <mxGeometry x="10" y="330" width="430" height="290" as="geometry" />
        </mxCell>
        <mxCell id="8BunqAhMfIGNklcZEyUK-6" value="&lt;font style=&quot;font-size: 16px;&quot;&gt;Create Seats: POST /v1/seats {&amp;nbsp;&lt;span style=&quot;white-space: pre;&quot;&gt;&amp;nbsp;&amp;nbsp;&amp;nbsp;&amp;nbsp;&lt;/span&gt;&lt;span style=&quot;white-space: pre;&quot;&gt;&amp;nbsp;&amp;nbsp;&amp;nbsp;&amp;nbsp;&lt;/span&gt;}&lt;br&gt;&lt;br&gt;Update Seats: PUT/PATCH /v1/seats {&lt;span style=&quot;white-space: pre;&quot;&gt;&amp;nbsp;&amp;nbsp;&amp;nbsp;&amp;nbsp;&lt;/span&gt;&lt;span style=&quot;white-space: pre;&quot;&gt;&amp;nbsp;&amp;nbsp;&amp;nbsp;&amp;nbsp;&lt;/span&gt;&lt;span style=&quot;white-space: pre;&quot;&gt;&amp;nbsp;&amp;nbsp;&amp;nbsp;&amp;nbsp;&lt;/span&gt;}&lt;br&gt;&lt;br&gt;Delete Seats: DELETE /v1/seats/:id&lt;br&gt;&lt;br&gt;Select Seats: GET /v1/seats/:id&amp;nbsp;&lt;br&gt;&lt;br&gt;Buy Seat: POST /v1/seats/:seat_id/buy&lt;br&gt;&lt;br&gt;Cancel Booking Seat: POST /v1/seats/:seat_id/buy&lt;br&gt;&lt;br&gt;&lt;/font&gt;" style="align=left;strokeColor=none;fillColor=none;spacingLeft=4;fontSize=12;verticalAlign=top;resizable=0;rotatable=0;part=1;html=1;" vertex="1" parent="8BunqAhMfIGNklcZEyUK-5">
          <mxGeometry y="50" width="430" height="240" as="geometry" />
        </mxCell>
        <mxCell id="8BunqAhMfIGNklcZEyUK-8" value="APIs Events (RESTful)" style="swimlane;childLayout=stackLayout;horizontal=1;startSize=50;horizontalStack=0;rounded=1;fontSize=14;fontStyle=0;strokeWidth=2;resizeParent=0;resizeLast=1;shadow=0;dashed=0;align=center;arcSize=4;whiteSpace=wrap;html=1;" vertex="1" parent="1">
          <mxGeometry x="450" y="330" width="430" height="220" as="geometry" />
        </mxCell>
        <mxCell id="8BunqAhMfIGNklcZEyUK-9" value="&lt;font size=&quot;3&quot;&gt;Create Event: POST /v1/seats {&amp;nbsp;&lt;span style=&quot;&quot;&gt;&lt;span style=&quot;white-space: pre;&quot;&gt;&amp;nbsp;&amp;nbsp;&amp;nbsp;&amp;nbsp;&lt;/span&gt;&lt;/span&gt;&lt;span style=&quot;&quot;&gt;&lt;span style=&quot;white-space: pre;&quot;&gt;&amp;nbsp;&amp;nbsp;&amp;nbsp;&amp;nbsp;&lt;/span&gt;}&lt;/span&gt;&lt;br&gt;&lt;br&gt;Update Event: PUT/PATCH /v1/seats {&lt;span style=&quot;&quot;&gt;&lt;span style=&quot;white-space: pre;&quot;&gt;&amp;nbsp;&amp;nbsp;&amp;nbsp;&amp;nbsp;&lt;/span&gt;&lt;/span&gt;&lt;span style=&quot;&quot;&gt;&lt;span style=&quot;white-space: pre;&quot;&gt;&amp;nbsp;&amp;nbsp;&amp;nbsp;&amp;nbsp;&lt;/span&gt;&lt;/span&gt;&lt;span style=&quot;&quot;&gt;&lt;span style=&quot;white-space: pre;&quot;&gt;&amp;nbsp;&amp;nbsp;&amp;nbsp;&amp;nbsp;&lt;/span&gt;}&lt;/span&gt;&lt;br&gt;&lt;br&gt;Delete Event: DELETE /v1/seats/:id&lt;br&gt;&lt;br&gt;Select Event: GET /v1/seats/:id&amp;nbsp;&lt;br&gt;&lt;/font&gt;" style="align=left;strokeColor=none;fillColor=none;spacingLeft=4;fontSize=12;verticalAlign=top;resizable=0;rotatable=0;part=1;html=1;" vertex="1" parent="8BunqAhMfIGNklcZEyUK-8">
          <mxGeometry y="50" width="430" height="170" as="geometry" />
        </mxCell>
        <mxCell id="8BunqAhMfIGNklcZEyUK-23" value="Seats" style="swimlane;childLayout=stackLayout;horizontal=1;startSize=50;horizontalStack=0;rounded=1;fontSize=14;fontStyle=0;strokeWidth=2;resizeParent=0;resizeLast=1;shadow=0;dashed=0;align=center;arcSize=4;whiteSpace=wrap;html=1;" vertex="1" parent="1">
          <mxGeometry x="10" y="660" width="160" height="280" as="geometry" />
        </mxCell>
        <mxCell id="8BunqAhMfIGNklcZEyUK-24" value="&lt;font style=&quot;font-size: 16px;&quot;&gt;- id PK&lt;br&gt;- seat - string(256)&lt;br&gt;- Note: Type of seat&lt;br&gt;- Price: Double&lt;br&gt;- Available: Bool&lt;br&gt;- Booked: Bool&lt;br&gt;&lt;/font&gt;" style="align=left;strokeColor=none;fillColor=none;spacingLeft=4;fontSize=12;verticalAlign=top;resizable=0;rotatable=0;part=1;html=1;" vertex="1" parent="8BunqAhMfIGNklcZEyUK-23">
          <mxGeometry y="50" width="160" height="230" as="geometry" />
        </mxCell>
        <mxCell id="8BunqAhMfIGNklcZEyUK-27" value="Events" style="swimlane;childLayout=stackLayout;horizontal=1;startSize=50;horizontalStack=0;rounded=1;fontSize=14;fontStyle=0;strokeWidth=2;resizeParent=0;resizeLast=1;shadow=0;dashed=0;align=center;arcSize=4;whiteSpace=wrap;html=1;" vertex="1" parent="1">
          <mxGeometry x="230" y="660" width="260" height="280" as="geometry" />
        </mxCell>
        <mxCell id="8BunqAhMfIGNklcZEyUK-28" value="&lt;font style=&quot;font-size: 16px;&quot;&gt;- id PK&lt;br&gt;- EventName - string(256)&lt;br&gt;- Event Desc: string(1048)&lt;br&gt;- EventDate: DateTime&lt;br&gt;- Location: string(1048)&lt;br&gt;&lt;br&gt;&lt;/font&gt;" style="align=left;strokeColor=none;fillColor=none;spacingLeft=4;fontSize=12;verticalAlign=top;resizable=0;rotatable=0;part=1;html=1;" vertex="1" parent="8BunqAhMfIGNklcZEyUK-27">
          <mxGeometry y="50" width="260" height="230" as="geometry" />
        </mxCell>
        <mxCell id="8BunqAhMfIGNklcZEyUK-29" value="Purchase" style="swimlane;childLayout=stackLayout;horizontal=1;startSize=50;horizontalStack=0;rounded=1;fontSize=14;fontStyle=0;strokeWidth=2;resizeParent=0;resizeLast=1;shadow=0;dashed=0;align=center;arcSize=4;whiteSpace=wrap;html=1;" vertex="1" parent="1">
          <mxGeometry x="230" y="990" width="260" height="170" as="geometry" />
        </mxCell>
        <mxCell id="8BunqAhMfIGNklcZEyUK-30" value="&lt;font style=&quot;font-size: 16px;&quot;&gt;- Purchaseid PK&lt;br&gt;- SeatId - string(256)&lt;br&gt;- UserId: string(1048)&lt;br&gt;- EventId: DateTime&lt;br&gt;- Comments&lt;br&gt;&lt;br&gt;&lt;/font&gt;" style="align=left;strokeColor=none;fillColor=none;spacingLeft=4;fontSize=12;verticalAlign=top;resizable=0;rotatable=0;part=1;html=1;" vertex="1" parent="8BunqAhMfIGNklcZEyUK-29">
          <mxGeometry y="50" width="260" height="120" as="geometry" />
        </mxCell>
        <mxCell id="8BunqAhMfIGNklcZEyUK-31" value="User" style="swimlane;childLayout=stackLayout;horizontal=1;startSize=50;horizontalStack=0;rounded=1;fontSize=14;fontStyle=0;strokeWidth=2;resizeParent=0;resizeLast=1;shadow=0;dashed=0;align=center;arcSize=4;whiteSpace=wrap;html=1;" vertex="1" parent="1">
          <mxGeometry x="550" y="660" width="260" height="280" as="geometry" />
        </mxCell>
        <mxCell id="8BunqAhMfIGNklcZEyUK-32" value="&lt;font style=&quot;font-size: 16px;&quot;&gt;- id PK&lt;br&gt;- UserName - string(256)&lt;br&gt;- emailaddress: string(1048)&lt;br&gt;- Mobile: DateTime&lt;br&gt;&lt;br&gt;&lt;/font&gt;" style="align=left;strokeColor=none;fillColor=none;spacingLeft=4;fontSize=12;verticalAlign=top;resizable=0;rotatable=0;part=1;html=1;" vertex="1" parent="8BunqAhMfIGNklcZEyUK-31">
          <mxGeometry y="50" width="260" height="230" as="geometry" />
        </mxCell>
        <mxCell id="8BunqAhMfIGNklcZEyUK-36" value="User&amp;nbsp;&lt;br&gt;(Browser, APP)" style="rounded=0;whiteSpace=wrap;html=1;" vertex="1" parent="1">
          <mxGeometry x="30" y="1490" width="120" height="60" as="geometry" />
        </mxCell>
        <mxCell id="8BunqAhMfIGNklcZEyUK-37" value="Purchase" style="rounded=1;whiteSpace=wrap;html=1;" vertex="1" parent="1">
          <mxGeometry x="390" y="1360" width="120" height="60" as="geometry" />
        </mxCell>
        <mxCell id="8BunqAhMfIGNklcZEyUK-38" value="LB" style="rhombus;whiteSpace=wrap;html=1;" vertex="1" parent="1">
          <mxGeometry x="220" y="1480" width="80" height="80" as="geometry" />
        </mxCell>
        <mxCell id="8BunqAhMfIGNklcZEyUK-39" value="Application Layer" style="text;html=1;strokeColor=none;fillColor=none;align=center;verticalAlign=middle;whiteSpace=wrap;rounded=0;fontSize=16;" vertex="1" parent="1">
          <mxGeometry x="375" y="1290" width="150" height="30" as="geometry" />
        </mxCell>
        <mxCell id="8BunqAhMfIGNklcZEyUK-40" value="High Level Design" style="text;html=1;strokeColor=none;fillColor=none;align=center;verticalAlign=middle;whiteSpace=wrap;rounded=0;fontSize=18;fontStyle=1" vertex="1" parent="1">
          <mxGeometry x="50" y="1240" width="180" height="30" as="geometry" />
        </mxCell>
        <mxCell id="8BunqAhMfIGNklcZEyUK-41" value="User" style="rounded=1;whiteSpace=wrap;html=1;" vertex="1" parent="1">
          <mxGeometry x="390" y="1690" width="120" height="60" as="geometry" />
        </mxCell>
        <mxCell id="8BunqAhMfIGNklcZEyUK-42" value="Seats" style="rounded=1;whiteSpace=wrap;html=1;" vertex="1" parent="1">
          <mxGeometry x="390" y="1470" width="120" height="60" as="geometry" />
        </mxCell>
        <mxCell id="8BunqAhMfIGNklcZEyUK-43" value="Events" style="rounded=1;whiteSpace=wrap;html=1;" vertex="1" parent="1">
          <mxGeometry x="390" y="1580" width="120" height="60" as="geometry" />
        </mxCell>
        <mxCell id="8BunqAhMfIGNklcZEyUK-45" value="Writes" style="shape=cylinder3;whiteSpace=wrap;html=1;boundedLbl=1;backgroundOutline=1;size=15;" vertex="1" parent="1">
          <mxGeometry x="710" y="1380" width="60" height="80" as="geometry" />
        </mxCell>
        <mxCell id="8BunqAhMfIGNklcZEyUK-48" value="Reads" style="shape=cylinder3;whiteSpace=wrap;html=1;boundedLbl=1;backgroundOutline=1;size=15;" vertex="1" parent="1">
          <mxGeometry x="710" y="1570" width="60" height="80" as="geometry" />
        </mxCell>
        <mxCell id="8BunqAhMfIGNklcZEyUK-49" value="Reads" style="shape=cylinder3;whiteSpace=wrap;html=1;boundedLbl=1;backgroundOutline=1;size=15;" vertex="1" parent="1">
          <mxGeometry x="710" y="1470" width="60" height="80" as="geometry" />
        </mxCell>
        <mxCell id="8BunqAhMfIGNklcZEyUK-50" value="Persistence Layer" style="text;html=1;strokeColor=none;fillColor=none;align=center;verticalAlign=middle;whiteSpace=wrap;rounded=0;fontSize=16;" vertex="1" parent="1">
          <mxGeometry x="660" y="1290" width="150" height="30" as="geometry" />
        </mxCell>
        <mxCell id="8BunqAhMfIGNklcZEyUK-51" value="" style="rounded=1;whiteSpace=wrap;html=1;" vertex="1" parent="1">
          <mxGeometry x="940" y="1320" width="190" height="440" as="geometry" />
        </mxCell>
        <mxCell id="8BunqAhMfIGNklcZEyUK-55" value="Reporting/ML Layer" style="text;html=1;strokeColor=none;fillColor=none;align=center;verticalAlign=middle;whiteSpace=wrap;rounded=0;fontSize=16;" vertex="1" parent="1">
          <mxGeometry x="955" y="1280" width="150" height="30" as="geometry" />
        </mxCell>
        <mxCell id="8BunqAhMfIGNklcZEyUK-58" value="" style="endArrow=classic;startArrow=classic;html=1;rounded=0;exitX=1;exitY=0.5;exitDx=0;exitDy=0;entryX=0;entryY=0.5;entryDx=0;entryDy=0;" edge="1" parent="1" source="8BunqAhMfIGNklcZEyUK-36" target="8BunqAhMfIGNklcZEyUK-38">
          <mxGeometry width="50" height="50" relative="1" as="geometry">
            <mxPoint x="490" y="1600" as="sourcePoint" />
            <mxPoint x="540" y="1550" as="targetPoint" />
          </mxGeometry>
        </mxCell>
        <mxCell id="8BunqAhMfIGNklcZEyUK-59" value="" style="endArrow=classic;startArrow=classic;html=1;rounded=0;exitX=1;exitY=0.5;exitDx=0;exitDy=0;entryX=0;entryY=0.432;entryDx=0;entryDy=0;entryPerimeter=0;" edge="1" parent="1" source="8BunqAhMfIGNklcZEyUK-38" target="8BunqAhMfIGNklcZEyUK-44">
          <mxGeometry width="50" height="50" relative="1" as="geometry">
            <mxPoint x="160" y="1530" as="sourcePoint" />
            <mxPoint x="230" y="1530" as="targetPoint" />
          </mxGeometry>
        </mxCell>
        <mxCell id="8BunqAhMfIGNklcZEyUK-60" value="" style="endArrow=classic;startArrow=classic;html=1;rounded=0;exitX=1.016;exitY=0.432;exitDx=0;exitDy=0;exitPerimeter=0;" edge="1" parent="1" source="8BunqAhMfIGNklcZEyUK-44">
          <mxGeometry width="50" height="50" relative="1" as="geometry">
            <mxPoint x="170" y="1540" as="sourcePoint" />
            <mxPoint x="640" y="1520" as="targetPoint" />
          </mxGeometry>
        </mxCell>
        <mxCell id="8BunqAhMfIGNklcZEyUK-61" value="" style="endArrow=classic;startArrow=classic;html=1;rounded=0;exitX=1.011;exitY=0.436;exitDx=0;exitDy=0;entryX=0.005;entryY=0.459;entryDx=0;entryDy=0;exitPerimeter=0;entryPerimeter=0;" edge="1" parent="1" source="8BunqAhMfIGNklcZEyUK-46" target="8BunqAhMfIGNklcZEyUK-51">
          <mxGeometry width="50" height="50" relative="1" as="geometry">
            <mxPoint x="180" y="1550" as="sourcePoint" />
            <mxPoint x="250" y="1550" as="targetPoint" />
          </mxGeometry>
        </mxCell>
        <mxCell id="8BunqAhMfIGNklcZEyUK-62" value="&lt;b&gt;Recommendations&lt;/b&gt;" style="rounded=0;whiteSpace=wrap;html=1;" vertex="1" parent="1">
          <mxGeometry x="975" y="1370" width="120" height="60" as="geometry" />
        </mxCell>
        <mxCell id="8BunqAhMfIGNklcZEyUK-63" value="&lt;b&gt;Sentiment Analytics&lt;/b&gt;" style="rounded=0;whiteSpace=wrap;html=1;" vertex="1" parent="1">
          <mxGeometry x="975" y="1610" width="120" height="60" as="geometry" />
        </mxCell>
        <mxCell id="8BunqAhMfIGNklcZEyUK-64" value="&lt;b&gt;Logging/Visibility&lt;/b&gt;" style="shape=process;whiteSpace=wrap;html=1;backgroundOutline=1;" vertex="1" parent="1">
          <mxGeometry x="365" y="1220" width="765" height="60" as="geometry" />
        </mxCell>
        <mxCell id="8BunqAhMfIGNklcZEyUK-65" value="CDN" style="rhombus;whiteSpace=wrap;html=1;fillColor=#d5e8d4;strokeColor=#82b366;" vertex="1" parent="1">
          <mxGeometry x="220" y="1600" width="80" height="80" as="geometry" />
        </mxCell>
        <mxCell id="8BunqAhMfIGNklcZEyUK-66" value="" style="endArrow=classic;startArrow=classic;html=1;rounded=0;exitX=0;exitY=0.5;exitDx=0;exitDy=0;" edge="1" parent="1" source="8BunqAhMfIGNklcZEyUK-65">
          <mxGeometry width="50" height="50" relative="1" as="geometry">
            <mxPoint x="530" y="1550" as="sourcePoint" />
            <mxPoint x="150" y="1520" as="targetPoint" />
          </mxGeometry>
        </mxCell>
        <mxCell id="8BunqAhMfIGNklcZEyUK-67" value="" style="endArrow=classic;startArrow=classic;html=1;rounded=0;exitX=1;exitY=0.5;exitDx=0;exitDy=0;entryX=-0.021;entryY=0.707;entryDx=0;entryDy=0;entryPerimeter=0;" edge="1" parent="1" source="8BunqAhMfIGNklcZEyUK-65" target="8BunqAhMfIGNklcZEyUK-44">
          <mxGeometry width="50" height="50" relative="1" as="geometry">
            <mxPoint x="530" y="1550" as="sourcePoint" />
            <mxPoint x="580" y="1500" as="targetPoint" />
          </mxGeometry>
        </mxCell>
        <mxCell id="8BunqAhMfIGNklcZEyUK-68" value="Caching" style="ellipse;whiteSpace=wrap;html=1;aspect=fixed;fillColor=#d5e8d4;strokeColor=#82b366;" vertex="1" parent="1">
          <mxGeometry x="210" y="1360" width="80" height="80" as="geometry" />
        </mxCell>
        <mxCell id="8BunqAhMfIGNklcZEyUK-69" value="" style="endArrow=classic;startArrow=classic;html=1;rounded=0;entryX=0;entryY=0.5;entryDx=0;entryDy=0;" edge="1" parent="1" target="8BunqAhMfIGNklcZEyUK-68">
          <mxGeometry width="50" height="50" relative="1" as="geometry">
            <mxPoint x="150" y="1520" as="sourcePoint" />
            <mxPoint x="480" y="1590" as="targetPoint" />
          </mxGeometry>
        </mxCell>
        <mxCell id="8BunqAhMfIGNklcZEyUK-70" value="" style="endArrow=classic;startArrow=classic;html=1;rounded=0;exitX=1;exitY=0.5;exitDx=0;exitDy=0;entryX=0;entryY=0.161;entryDx=0;entryDy=0;entryPerimeter=0;" edge="1" parent="1" source="8BunqAhMfIGNklcZEyUK-68" target="8BunqAhMfIGNklcZEyUK-44">
          <mxGeometry width="50" height="50" relative="1" as="geometry">
            <mxPoint x="430" y="1640" as="sourcePoint" />
            <mxPoint x="480" y="1590" as="targetPoint" />
          </mxGeometry>
        </mxCell>
        <mxCell id="8BunqAhMfIGNklcZEyUK-71" value="" style="endArrow=none;dashed=1;html=1;dashPattern=1 3;strokeWidth=2;rounded=0;exitX=1.016;exitY=0.343;exitDx=0;exitDy=0;exitPerimeter=0;" edge="1" parent="1" source="8BunqAhMfIGNklcZEyUK-44">
          <mxGeometry width="50" height="50" relative="1" as="geometry">
            <mxPoint x="430" y="1620" as="sourcePoint" />
            <mxPoint x="640" y="1480" as="targetPoint" />
          </mxGeometry>
        </mxCell>
        <mxCell id="8BunqAhMfIGNklcZEyUK-72" value="&lt;p style=&quot;line-height: 200%;&quot;&gt;&lt;b&gt;&lt;font color=&quot;#4f7a28&quot;&gt;KAFKA&lt;/font&gt;&lt;/b&gt;&lt;/p&gt;" style="edgeLabel;html=1;align=center;verticalAlign=middle;resizable=0;points=[];" vertex="1" connectable="0" parent="8BunqAhMfIGNklcZEyUK-71">
          <mxGeometry x="0.1491" relative="1" as="geometry">
            <mxPoint x="-3" as="offset" />
          </mxGeometry>
        </mxCell>
        <mxCell id="8BunqAhMfIGNklcZEyUK-73" value="3rd" style="shape=tapeData;whiteSpace=wrap;html=1;perimeter=ellipsePerimeter;fillColor=#fff2cc;strokeColor=#d6b656;" vertex="1" parent="1">
          <mxGeometry x="480" y="1360" width="30" height="30" as="geometry" />
        </mxCell>
        <mxCell id="8BunqAhMfIGNklcZEyUK-74" value="Blob &lt;br&gt;Storage" style="shape=dataStorage;whiteSpace=wrap;html=1;fixedSize=1;" vertex="1" parent="1">
          <mxGeometry x="690" y="1670" width="100" height="80" as="geometry" />
        </mxCell>
      </root>
    </mxGraphModel>
  </diagram>
</mxfile>
